<svg xmlns="http://www.w3.org/2000/svg" xmlns:xlink="http://www.w3.org/1999/xlink" width="391.317" height="253" viewBox="0 0 391.317 253"><defs><style>.a{fill:#85848b;}.b{fill:#504f60;}.c,.o{opacity:0.2;}.d{fill:#6c63ff;}.e{fill:#514e7f;}.f{fill:#464353;}.g{fill:#a1616a;}.h{fill:#5c188c;}.i{fill:#fff;}.ac,.j{opacity:0.1;}.k{fill:#470a73;}.l{fill:#8dd070;}.m{fill:#dbc8e8;}.n{fill:#fbf8fd;}.o{fill:#acbf21;}.p{fill:#26093a;}.q{opacity:0.22;}.r{fill:#fbbebe;}.s,.x{opacity:0.05;}.t{fill:#3f3d56;}.u{fill:#18161e;}.v{fill:url(#a);}.w{fill:#2d293d;}.y{fill:#ffcdd3;}.z{fill:#f2f2f2;}.aa{fill:#cc18a2;}.ab{fill:#575988;}.ad{fill:#321e40;}</style><linearGradient id="a" x1="0.5" y1="1" x2="0.5" gradientUnits="objectBoundingBox"><stop offset="0" stop-color="gray" stop-opacity="0.251"/><stop offset="0.54" stop-color="gray" stop-opacity="0.122"/><stop offset="1" stop-color="gray" stop-opacity="0.102"/></linearGradient></defs><rect class="a" width="391.317" height="2.86" transform="translate(0 250.14)"/><path class="b" d="M823.229,651.027c0,2.2-12.822,8.612-28.052,8.612s-27.1-6.413-27.1-8.612,12.344-1.491,27.59-1.491S823.229,648.823,823.229,651.027Z" transform="translate(-513.205 -451.379)"/><path class="c" d="M823.229,653.72c0,2.2-12.822,8.612-28.052,8.612s-27.1-6.413-27.1-8.612" transform="translate(-513.205 -454.072)"/><path class="d" d="M502.823,535.628a17.021,17.021,0,0,0,7.4-.25c.373-.116.783-.373.746-.746a.9.9,0,0,0-.168-.373A23.036,23.036,0,0,1,508.568,530a.373.373,0,0,0-.138-.194.351.351,0,0,0-.239,0c-1.092.287-2.036.992-3.121,1.294a4.436,4.436,0,0,1-1.7.127c-.492-.056-1.163-.462-1.611-.41C502.013,532.444,502.632,533.966,502.823,535.628Z" transform="translate(-346.177 -376.343)"/><path class="d" d="M625.434,520.166a12.936,12.936,0,0,0,4.28-4.019.7.7,0,0,0,.116-.347.717.717,0,0,0-.138-.336,13.854,13.854,0,0,0-3.479-3.754,10.149,10.149,0,0,0-1.939,1.79c-.41.432-1.544,1.118-1.555,1.778,0,.373.432.805.634,1.118.272.4.529.813.776,1.23A14.6,14.6,0,0,1,625.434,520.166Z" transform="translate(-422.039 -365.008)"/><path class="e" d="M488.105,545.1a1.659,1.659,0,0,1-.3,1.081,1.466,1.466,0,0,1-.626.373c-3.456,1.238-7.457-.306-10.905.913-.708.25-1.379.611-2.092.85a11.379,11.379,0,0,1-2.61.462c-1.219.116-2.446.19-3.669.224a8.822,8.822,0,0,1-2.766-.242,3.322,3.322,0,0,1-2.121-1.681,1.614,1.614,0,0,1-.1-1.2,1.291,1.291,0,0,1,.227-.373,3.271,3.271,0,0,1,.813-.66l1.271-.82a8.535,8.535,0,0,1,1.928-1.022c.5-.164,1.036-.235,1.547-.373a10.5,10.5,0,0,0,4.418-3.3l1.73-1.846a1.741,1.741,0,0,1,.6-.481,1.663,1.663,0,0,1,.746-.071,9.97,9.97,0,0,1,4.716,1.581,6.1,6.1,0,0,0,1.163.686,4.153,4.153,0,0,0,3.251-.4c.444-.239.347-.373.533-.8s.641-.7,1.036-.309a1.1,1.1,0,0,1,.246.47,13.225,13.225,0,0,1,.231,3.844,1.693,1.693,0,0,0,.075.6,3.377,3.377,0,0,0,.339.552,1.262,1.262,0,0,1,.071.142,3.792,3.792,0,0,1,.25,1.8Z" transform="translate(-321.77 -380.82)"/><path class="f" d="M488.105,555.8a1.659,1.659,0,0,1-.3,1.081,1.464,1.464,0,0,1-.626.373c-3.456,1.238-7.457-.306-10.905.914-.708.25-1.379.611-2.092.85a11.379,11.379,0,0,1-2.61.462c-1.219.116-2.446.19-3.669.224a8.823,8.823,0,0,1-2.766-.242,3.322,3.322,0,0,1-2.121-1.682,1.614,1.614,0,0,1-.1-1.2,1.291,1.291,0,0,1,.227-.373c.2.421.347.981.474,1.182a2.42,2.42,0,0,0,1.618,1.167,4.019,4.019,0,0,0,1.491-.19c3.132-.775,6.461-.787,9.47-1.961a21.9,21.9,0,0,1,3.1-1.193,24.4,24.4,0,0,1,3.355-.272c1.767-.142,3.479-.675,5.22-.954a3.792,3.792,0,0,1,.235,1.812Z" transform="translate(-321.77 -391.525)"/><path class="e" d="M618.3,523.738a6.284,6.284,0,0,1-1.909,3.4,22.233,22.233,0,0,0-2.673,2.923c-.895,1.368-1.3,3.065-2.461,4.22a6.748,6.748,0,0,1-1.491,1.063,10.4,10.4,0,0,1-1.92.884,14.325,14.325,0,0,1-5.425.295,4.88,4.88,0,0,1-1.722-.332,5.191,5.191,0,0,1-.716-.44,3.42,3.42,0,0,1-1.119-1.119,1.118,1.118,0,0,1-.108-.813,1.908,1.908,0,0,1,.518-.79,12.3,12.3,0,0,1,1.312-1.182,7.861,7.861,0,0,0,1.708-1.491,4.816,4.816,0,0,0,.66-1.491,13.232,13.232,0,0,0,.481-2.852,9.035,9.035,0,0,1,.2-1.909c.276-.984,1.007-1.864.925-2.882a.719.719,0,0,1,.037-.436.608.608,0,0,1,.343-.212,6.078,6.078,0,0,1,1.782-.414,2.077,2.077,0,0,1,1.655.649c.254.306.421.746.794.865a1.26,1.26,0,0,0,.567.022,4.748,4.748,0,0,0,2.61-.8,3.255,3.255,0,0,0,1.081-2.375c0-.339-.153-.693.373-.746.4-.052.708.373.91.634a8.834,8.834,0,0,1,1.745,3.177.937.937,0,0,1,.332-.063,1.443,1.443,0,0,1,1.189.608A2.368,2.368,0,0,1,618.3,523.738Z" transform="translate(-406.989 -368.808)"/><path class="f" d="M618.536,529.954a6.285,6.285,0,0,1-1.909,3.4,22.237,22.237,0,0,0-2.673,2.923c-.895,1.368-1.3,3.065-2.461,4.22A6.749,6.749,0,0,1,610,541.56a10.408,10.408,0,0,1-1.92.884,14.326,14.326,0,0,1-5.425.295,4.88,4.88,0,0,1-1.722-.332,5.189,5.189,0,0,1-.716-.44,3.418,3.418,0,0,1-1.118-1.118,2.725,2.725,0,0,1,1.118-.268c.805.045,1.394.805,2.166,1.04,1.1.332,2.2-.444,3.311-.708a22.421,22.421,0,0,0,2.211-.373,5.468,5.468,0,0,0,1.637-.992,8.331,8.331,0,0,0,1.749-1.685,10.826,10.826,0,0,0,1.025-2.047,29.265,29.265,0,0,1,2.073-3.967,2.8,2.8,0,0,1,.421-.552,5.87,5.87,0,0,1,.57-.414,4.333,4.333,0,0,0,1.316-2.4,4.2,4.2,0,0,1,.294-.8,1.443,1.443,0,0,1,1.189.608A2.367,2.367,0,0,1,618.536,529.954Z" transform="translate(-407.226 -375.024)"/><path class="g" d="M439.094,206.5a7.908,7.908,0,0,1,2.237,2.61c.522,1.022,3.531,8.948,3.355,10.1.981-.988,4.847-1.148,5.839-2.136.414-.414,2.647-2.479,2.983-2.96s2.826-1.491,3.1-2c1.018-1.823-7.218-8.732-6.163-10.533a.47.47,0,0,0,.086-.283.463.463,0,0,0-.138-.22,12.351,12.351,0,0,0-2.382-1.629,3.778,3.778,0,0,1-1.816-2.162,7.83,7.83,0,0,0-2.106,1.424q-2.267,1.942-4.455,3.963c-.57.529-1.674,1.234-1.939,1.991C437.379,205.481,438.549,206.059,439.094,206.5Z" transform="translate(-305.963 -167.814)"/><path class="e" d="M459.845,214.13a24.264,24.264,0,0,0-3.527,2.886,7.02,7.02,0,0,0-2.237,3.594c-.1.556-.089,1.118-.175,1.681-.373,2.442-2.483,4.232-3.415,6.517a11.3,11.3,0,0,0-.593,2.181,25.774,25.774,0,0,0-.429,4.28c-.022,1.391,1.342,2.349,1.842,3.646a22.262,22.262,0,0,1,.887,3.963,46.962,46.962,0,0,0,2.237,7.345c1.838,5.078,7.8,19.115,9.634,24.2,5.633-1.413,20.629-4.66,25.617-7.639,1.663-.992-11.539-12.18-9.761-12.952a.664.664,0,0,0,.5-.936c-1.778-7.777-7.341-14.168-9.865-21.74-.876-2.628-2.449-4.873-3.643-7.371-1.081-2.263-1.659-4.765-2.953-6.916a4.363,4.363,0,0,0-.943-1.174,5.564,5.564,0,0,0-1.04-.63C461.244,214.7,460.558,214.492,459.845,214.13Z" transform="translate(-313.382 -178.375)"/><circle class="g" cx="8.817" cy="8.817" r="8.817" transform="translate(124.612 20.17)"/><path class="h" d="M466.4,205.772a2.957,2.957,0,0,1,3.315-.477,1.6,1.6,0,0,1,.984,1.592l4.373.067a8.782,8.782,0,0,1,2.073.19,3.013,3.013,0,0,1,1.73,1.085c.052.071.112.157.2.168a.321.321,0,0,0,.2-.067,3.8,3.8,0,0,1,2.177-.373,11.763,11.763,0,0,1,6.4,2.811,2.069,2.069,0,0,1,.746.928c.153.5-.03,1.118.373,1.473,0,4.1,1.409,7.934,2.349,11.931a5.352,5.352,0,0,0,1.324,1.9,7.67,7.67,0,0,1,1.413,2.11c.8,2.073-.3,4.511.474,6.592a11.294,11.294,0,0,0,1.491,2.367,6.122,6.122,0,0,1,1.275,3.057c.034.5-.03,1,0,1.491a9.025,9.025,0,0,0,.373,1.98q.477,1.8,1,3.605c.567,1.939,1.3,4.03,3.042,5.063-4.194.712-8.616,1.409-12.613-.048a6.54,6.54,0,0,1-1.573-.787c-1.443-1.029-2.14-2.789-2.763-4.452a21.02,21.02,0,0,1-1.54-5.745,6.6,6.6,0,0,0-.265-1.864,5.308,5.308,0,0,0-2.476-2.334,11.886,11.886,0,0,1-2.983-2.319,4.634,4.634,0,0,1-1.208-3.482c.075-.615.317-1.208.339-1.827a1.431,1.431,0,0,0-.846-1.491c-3.053-.925-4.511-4.541-5.19-7.658a24.588,24.588,0,0,1-.391-4.884l-.041-3.18a4.2,4.2,0,0,1-1.372-3.016,3.584,3.584,0,0,0-.019-1,2.755,2.755,0,0,0-.7-1.063A9.485,9.485,0,0,1,466.4,205.772Z" transform="translate(-324.001 -172.642)"/><path class="h" d="M440.177,229.721a24.43,24.43,0,0,1-.1,2.96c-.086.373-.235.746-.343,1.092a6.413,6.413,0,0,0,.406,4.15,23.114,23.114,0,0,0,2.121,3.672,5.966,5.966,0,0,1,.679,1.271,6.58,6.58,0,0,1,.261,1.45,45.044,45.044,0,0,0,1.036,5.861c.418,1.67,5.16,15.95,6.264,17.273a1.405,1.405,0,0,0,.85.578,1.547,1.547,0,0,0,.723-.149l2.237-.858a1.461,1.461,0,0,0,.518-.283,1.335,1.335,0,0,0,.321-.88c.16-1.819-4.593-16.2-5.2-17.918-1.827-5.19-4.258-10.193-5.447-15.566-.332-1.491-.507-3.788-1.6-4.977-.451-.492-.3-.283-.839-.026a6.125,6.125,0,0,0-.79.414,2.587,2.587,0,0,0-1.1,1.935Z" transform="translate(-307.169 -186.51)"/><path class="f" d="M556.62,320.79" transform="translate(-380.584 -245.269)"/><path class="i" d="M458.531,234.87c.6,3.173,1.219,6.338,1.834,9.511l8.754-2.293a6.153,6.153,0,0,0-.746-2.61c-.8-2-.816-4.232-1.461-6.29-.488-1.566-1.338-3.005-1.8-4.582-.265-.917-.4-1.864-.66-2.793a20.283,20.283,0,0,0-1.029-2.666,16.688,16.688,0,0,0-1.909-3.538,5.566,5.566,0,0,0-2.949,1.913,4.131,4.131,0,0,0-.544,1.864c-.153,1.965.559,3.941.324,5.895a17.338,17.338,0,0,0,.183,5.589Z" transform="translate(-318.733 -181.812)"/><path class="f" d="M480.027,341.9c.492,1.864-.22,3.825-.8,5.671a43.948,43.948,0,0,0-1.782,8.538,7.389,7.389,0,0,1-.44,2.159c-.276.623-.746,1.148-1.066,1.741a8.745,8.745,0,0,0-.667,5.242c.127,1.174.317,2.345.552,3.5a8.855,8.855,0,0,1,.227,4.269c.693-.153,1.163.746,1.118,1.45a3.868,3.868,0,0,0,.067,2.1c.857.313.865,1.491.839,2.4a20.225,20.225,0,0,0,.6,4.7q1.946,9.358,4.131,18.664c3.15.977,6.83,1.995,9.835.641a1.973,1.973,0,0,0,1.245-1.253,2.185,2.185,0,0,0-.119-.962l-1.424-5.182a9.515,9.515,0,0,1-.511-3.833c.138-.958.556-1.991.086-2.837-.16-.291-.414-.518-.6-.794-.746-1.092-.354-2.554-.295-3.877a3.073,3.073,0,0,0-.06-.887,4.431,4.431,0,0,0-.425-.973,14.884,14.884,0,0,1-1.64-7.4,1.83,1.83,0,0,0-.13-.966,3.121,3.121,0,0,1-.242-.4,1.081,1.081,0,0,1,.078-.712,6.523,6.523,0,0,1-1.148-1.118,1.607,1.607,0,0,0,.276-2.513.839.839,0,0,0,.4-1.443c-.183-.127-.425-.183-.556-.373-.2-.276-.037-.66.127-.954l.869-1.57c.649-1.167.794-2.61,1.491-3.728a27.944,27.944,0,0,0,2.3-5.242l2.509-6.924,1.689,1.465a5.34,5.34,0,0,1,1.387,1.581,6.823,6.823,0,0,1,.451,1.894c.619,3.758,2.983,7.017,3.859,10.719a7.06,7.06,0,0,0,.8,2.394,5.217,5.217,0,0,1,.455.686,3.638,3.638,0,0,1,.19,1.137,5.306,5.306,0,0,0,2.237,3.8c.831.57,1.864.962,2.315,1.864a3.473,3.473,0,0,0,.373.794c.4.485,1.271.541,1.443,1.148.1.339-.082.746.108,1.044a.988.988,0,0,0,.414.309l2.427,1.212c2.714,1.357,4.1,4.474,6.1,6.745a14.54,14.54,0,0,1,1.827,2.416c.865,1.547,1.264,3.49,2.725,4.474a4.123,4.123,0,0,1,1.059.787c.459.6.291,1.45.332,2.211s.623,1.667,1.346,1.435a5.306,5.306,0,0,0,0,2.815,14.168,14.168,0,0,0,8.6-3.482,3.392,3.392,0,0,0,1.4-2.349.842.842,0,0,0-.1-.466,1.33,1.33,0,0,0-.548-.414c-2.271-1.23-2.953-4.083-4.1-6.4a55.432,55.432,0,0,0-3.728-5.7c-2.7-4.083-4.541-9.023-8.624-11.718a5.868,5.868,0,0,1-2.394-2.1c-.25-.548-.28-1.174-.477-1.741a1.511,1.511,0,0,0-1.275-1.118,7.815,7.815,0,0,0,.291-2.707,3.417,3.417,0,0,0-.134-1.167,5.674,5.674,0,0,0-.6-1.156,11.088,11.088,0,0,1-1.536-5.965,9.779,9.779,0,0,0-.1-3.218c-.164-.518-.451-.992-.649-1.491a9.318,9.318,0,0,1-.466-2.8l-.224-3.583a17.631,17.631,0,0,0-.462-3.542c-.746-2.781-1.491-14.432-4.045-15.745s-6.942,7.654-9.817,7.829a12.782,12.782,0,0,0-3.728.72,18.164,18.164,0,0,0-5.078,3.355l-5.287,4.44A19.48,19.48,0,0,1,480.027,341.9Z" transform="translate(-329.496 -246.642)"/><path class="f" d="M416.378,165.5a6.646,6.646,0,0,1,5.13-2.5,11.949,11.949,0,0,1,5.671,1.424,7.006,7.006,0,0,0,1.655.679c.932.19,1.969-.063,2.811.373,1.118.593,1.335,2.1,1.238,3.355s-.332,2.643.336,3.728a8.621,8.621,0,0,1,.645.973,3.218,3.218,0,0,1-.052,2.073,13.434,13.434,0,0,1-1.07-1.368,1.26,1.26,0,0,0-1.544-.4c-.481.324-.473.913-.5,1.443s-.16,1.163-.66,1.335a1.07,1.07,0,0,1-1.118-.436c-.854-1.044-.511-2.71-1.357-3.762-.481-.6-1.283-.887-1.726-1.514-.35-.492-.44-1.118-.746-1.648s-1.018-.917-1.491-.552a2.016,2.016,0,0,0-.4.533,2.293,2.293,0,0,1-2.722.82,4.553,4.553,0,0,0-1.178-.511,1.458,1.458,0,0,0-1.346.746,2.912,2.912,0,0,0-.373,1.558,3.591,3.591,0,0,1-.291,2.136,2.211,2.211,0,0,1-.6.567,1.857,1.857,0,0,1-2.065.213,1.551,1.551,0,0,1-.462-1.447,11.688,11.688,0,0,1,.44-1.529c.328-1.156-.1-2.457.257-3.546A11.321,11.321,0,0,1,416.378,165.5Z" transform="translate(-291.222 -146.305)"/><path class="i" d="M432.773,213.543a1.358,1.358,0,0,0,.082.809,1.287,1.287,0,0,0,.44.421,9.045,9.045,0,0,0,4.153,1.346,1.264,1.264,0,0,1,.574.149,1.009,1.009,0,0,1,.242,1.156,3.01,3.01,0,0,0-.265,1.23c.108.779,1.033,1.118,1.812,1.234a4.215,4.215,0,0,0,3.154-.615,4.873,4.873,0,0,0,1.3-1.95c2.14-4.918,2.889-10.354,5.056-15.256a3.237,3.237,0,0,0,.324-1.022,1.007,1.007,0,0,0-.4-.94c-.4-.25-1.029-.108-1.3-.5-.134-.2-.119-.466-.239-.675-.25-.444-.906-.373-1.353-.63-.35-.186-.593-.57-.984-.645a1.238,1.238,0,0,0-1.018.44,13.109,13.109,0,0,0-2.647,4.455,52.229,52.229,0,0,1-3.788,7.024,4.1,4.1,0,0,0-1.186-2.323c-.667-.134-1.521,1.036-1.883,1.473A9.38,9.38,0,0,0,432.773,213.543Z" transform="translate(-302.893 -168.043)"/><path class="j" d="M462.157,200.32a1.786,1.786,0,0,0-1.383.693,3.945,3.945,0,0,0-.578,1.864,16.2,16.2,0,0,1-2.2,5.9" transform="translate(-318.732 -169.714)"/><path class="j" d="M467.4,204.31a2.129,2.129,0,0,0-1.808,1.085,6.1,6.1,0,0,0-.455,1.842,10.107,10.107,0,0,1-1.808,3.874" transform="translate(-322.075 -172.217)"/><path class="k" d="M361.041,370.4v-4.631a12.855,12.855,0,0,0-12.855-12.852H165.315a12.855,12.855,0,0,0-12.855,12.852v8.538Z" transform="translate(-127.107 -265.42)"/><path class="l" d="M323.369,290.34s-.522,32.384,5.22,43.04,8.2,57.01,8.2,57.01,60.19,6.226,102.134-7.457,131.192-19.279,131.192-19.279l-15.04-101.369s-74.3-4.765-116.57,15.394S323.369,290.34,323.369,290.34Z" transform="translate(-234.288 -208.268)"/><path class="m" d="M323.369,290.34s-.522,32.384,5.22,43.04,8.2,57.01,8.2,57.01,60.19,6.226,102.134-7.457,131.192-19.279,131.192-19.279l-15.04-101.369s-74.3-4.765-116.57,15.394S323.369,290.34,323.369,290.34Z" transform="translate(-234.288 -208.268)"/><path class="n" d="M358.5,314.21s-1.883,26.721,2.841,35.259,4.944,46.652,4.944,46.652,54.169,2.513,92.7-10.6,119.5-21.624,119.5-21.624l-9.2-82.9s-67-.69-106.1,17.773S358.5,314.21,358.5,314.21Z" transform="translate(-256.095 -220.309)"/><ellipse class="j" cx="14.063" cy="30.162" rx="14.063" ry="30.162" transform="translate(185.082 91.908) rotate(-7.1)"/><path class="o" d="M479.121,130.66S406.937,148.929,372.9,181.086s-105.7,47.383-105.7,47.383,9.44,30.979,18.172,39.36,25.293,51.749,25.293,51.749,59.195-12.549,94.912-38.454,118.96-58.62,118.96-58.62Z" transform="translate(-199.069 -126.026)"/><path class="l" d="M264.29,216.035s9.436,30.982,18.161,39.364,25.293,51.745,25.293,51.745,59.2-12.546,94.923-38.45,118.956-58.609,118.956-58.609L476.208,118.23s-72.18,18.269-106.22,50.425S264.29,216.035,264.29,216.035Z" transform="translate(-197.244 -118.23)"/><path class="m" d="M264.29,216.035s9.436,30.982,18.161,39.364,25.293,51.745,25.293,51.745,59.2-12.546,94.923-38.45,118.956-58.609,118.956-58.609L476.208,118.23s-72.18,18.269-106.22,50.425S264.29,216.035,264.29,216.035Z" transform="translate(-197.244 -118.23)"/><path class="n" d="M308,237.8s6.409,26.012,13.526,32.686,19.014,42.876,19.014,42.876,52.323-14.235,84.972-38.543S532.624,217.6,532.624,217.6l-34.192-76.1s-63.974,19.9-95.527,49.471S308,237.8,308,237.8Z" transform="translate(-224.657 -132.824)"/><ellipse class="j" cx="14.063" cy="30.162" rx="14.063" ry="30.162" transform="translate(161.434 77.708) rotate(-24.97)"/><path class="j" d="M366,390.187V518.814a11.122,11.122,0,0,1-11.125,11.122H163.608a11.122,11.122,0,0,1-11.118-11.122V377.22c5.481,2.036,5.481,2.036,11.118,1.864H354.871A11.125,11.125,0,0,1,366,390.187Z" transform="translate(-127.126 -280.66)"/><path class="p" d="M366,394.571V523.2a11.125,11.125,0,0,1-11.125,11.122H163.608A11.122,11.122,0,0,1,152.49,523.2V381.6c5.481,2.032,5.481,2.032,11.118,1.864H354.871A11.125,11.125,0,0,1,366,394.571Z" transform="translate(-127.126 -283.407)"/><path class="j" d="M621.982,543.937v41.135H582.089a20.568,20.568,0,1,1,0-41.136Z" transform="translate(-383.657 -385.219)"/><path class="q" d="M623.442,541v41.142H583.549a20.568,20.568,0,1,1,0-41.136Z" transform="translate(-384.572 -383.378)"/><circle class="j" cx="8.02" cy="8.02" r="8.02" transform="translate(192.87 171.268)"/><circle class="i" cx="8.02" cy="8.02" r="8.02" transform="translate(193.414 170.179)"/><path class="r" d="M866.948,530.367c.317,3.434-2.282,6.767-1.525,10.13.164.72.474,1.4.585,2.125.313,2-.876,3.889-2.013,5.559l-9.768,14.332a8.9,8.9,0,0,1-1.394,1.722c-1.864,1.663-4.668,1.491-7.121,1.987a12.17,12.17,0,0,0-4.772,2.11.306.306,0,0,0-.045.418,4.1,4.1,0,0,0,3.549,1.667c.257.339,0,.835-.373,1.077-.526.373-1.245.462-1.35,1.35a1.466,1.466,0,0,0,.179.895,2.778,2.778,0,0,0,1.708,1.189c3.382,1.033,7.035-.783,9.567-3.255s4.347-5.592,6.83-8.109c1.376-1.391,2.938-2.584,4.355-3.933a49.857,49.857,0,0,0,7.143-9.243,10.313,10.313,0,0,0,1.547-3.147c.268-1.145.142-2.3.444-3.408a12.553,12.553,0,0,1,2.341-3.829,12.668,12.668,0,0,0,2.662-8.243,7.9,7.9,0,0,0-4.824-6.841,4.288,4.288,0,0,0-2.7-.164,6.422,6.422,0,0,0-2.752,2.189l-1.864,2.144a5.026,5.026,0,0,0-1.081,1.64,1.719,1.719,0,0,0,.373,1.823" transform="translate(-558.833 -373.1)"/><path class="s" d="M866.948,530.367c.317,3.434-2.282,6.767-1.525,10.13.164.72.474,1.4.585,2.125.313,2-.876,3.889-2.013,5.559l-9.768,14.332a8.9,8.9,0,0,1-1.394,1.722c-1.864,1.663-4.668,1.491-7.121,1.987a12.17,12.17,0,0,0-4.772,2.11.306.306,0,0,0-.045.418,4.1,4.1,0,0,0,3.549,1.667c.257.339,0,.835-.373,1.077-.526.373-1.245.462-1.35,1.35a1.466,1.466,0,0,0,.179.895,2.778,2.778,0,0,0,1.708,1.189c3.382,1.033,7.035-.783,9.567-3.255s4.347-5.592,6.83-8.109c1.376-1.391,2.938-2.584,4.355-3.933a49.857,49.857,0,0,0,7.143-9.243,10.313,10.313,0,0,0,1.547-3.147c.268-1.145.142-2.3.444-3.408a12.553,12.553,0,0,1,2.341-3.829,12.668,12.668,0,0,0,2.662-8.243,7.9,7.9,0,0,0-4.824-6.841,4.288,4.288,0,0,0-2.7-.164,6.422,6.422,0,0,0-2.752,2.189l-1.864,2.144a5.026,5.026,0,0,0-1.081,1.64,1.719,1.719,0,0,0,.373,1.823" transform="translate(-558.833 -373.1)"/><path class="t" d="M916.363,770.47c-2.133,1.3-4.791,1.38-7.27,1.078-.4-.048-.872-.078-1.119.231-.373.447.067,1.119.522,1.465a10.755,10.755,0,0,0,4.992,2.054,32.868,32.868,0,0,0,4.884.324,82.559,82.559,0,0,0,13.351-.488,1.889,1.889,0,0,0,.746-.216,1.364,1.364,0,0,0,.552-.839,3.327,3.327,0,0,0-1.159-3.177,9.732,9.732,0,0,0-3.113-1.67l-3.877-1.51c-.91-.354-2.367-1.294-3.355-1.219C919.659,766.637,917.9,769.568,916.363,770.47Z" transform="translate(-600.854 -524.803)"/><path class="s" d="M916.363,770.47c-2.133,1.3-4.791,1.38-7.27,1.078-.4-.048-.872-.078-1.119.231-.373.447.067,1.119.522,1.465a10.755,10.755,0,0,0,4.992,2.054,32.868,32.868,0,0,0,4.884.324,82.559,82.559,0,0,0,13.351-.488,1.889,1.889,0,0,0,.746-.216,1.364,1.364,0,0,0,.552-.839,3.327,3.327,0,0,0-1.159-3.177,9.732,9.732,0,0,0-3.113-1.67l-3.877-1.51c-.91-.354-2.367-1.294-3.355-1.219C919.659,766.637,917.9,769.568,916.363,770.47Z" transform="translate(-600.854 -524.803)"/><path class="f" d="M933.045,602.076c-1.614,2.147-3.285,4.627-2.886,7.285a16.241,16.241,0,0,0,1.607,4.019,28.351,28.351,0,0,1,1.626,5.652c.6,2.811,1.212,5.63,1.581,8.486.421,3.225-1.558,12.557-1.741,15.8a3.34,3.34,0,0,1-.682,2.192c-.213.224-.5.4-.593.693a1.185,1.185,0,0,0,.13.82,9.022,9.022,0,0,0,4.847,4.452,38.336,38.336,0,0,0,9.347,2.457,1.863,1.863,0,0,0,.88-.116,1.711,1.711,0,0,0,.679-.779c1.622-3.1.063-14.13.086-17.631.022-2.919.712-5.82.585-8.735-.1-2.341-.746-4.631-.958-6.964-.373-3.825.328-7.669,1.033-11.45.537-2.9,1.078-5.8,1.767-8.665a16.635,16.635,0,0,1,1.864-5.029c.746-1.2,1.793-2.211,2.662-3.356a15.145,15.145,0,0,0,2.983-11.088c-.052-.373-5.592,1.406-6.081,1.618a18.94,18.94,0,0,0-5.421,3.486,45.548,45.548,0,0,0-3.415,4.224q-2.382,2.9-4.705,5.85Q935.588,598.669,933.045,602.076Z" transform="translate(-614.818 -407.883)"/><path class="s" d="M933.045,601.758c-1.614,2.148-3.285,4.631-2.886,7.285a16.208,16.208,0,0,0,1.607,4.023,28.317,28.317,0,0,1,1.626,5.648c.6,2.815,1.212,5.633,1.581,8.486.421,3.229-1.558,12.557-1.741,15.8a3.35,3.35,0,0,1-.682,2.2c-.213.22-.5.4-.593.69a1.182,1.182,0,0,0,.13.82,9.131,9.131,0,0,0,4.847,4.474,36.018,36.018,0,0,0,9.347,1.749,1.864,1.864,0,0,0,.88-.116,1.685,1.685,0,0,0,.679-.775c1.622-3.1.063-13.422.086-16.927.022-2.923.712-5.82.585-8.739-.1-2.341-.746-4.631-.958-6.961-.373-3.829.328-7.673,1.033-11.453.537-2.9,1.078-5.8,1.767-8.665a16.634,16.634,0,0,1,1.864-5.029c.746-1.2,1.793-2.211,2.662-3.356a15.137,15.137,0,0,0,2.983-11.088c-.052-.373-5.592,1.406-6.081,1.618a19.032,19.032,0,0,0-5.421,3.49,45.019,45.019,0,0,0-3.415,4.22q-2.382,2.9-4.705,5.853Q935.588,598.346,933.045,601.758Z" transform="translate(-614.818 -407.695)"/><circle class="r" cx="9.049" cy="9.049" r="9.049" transform="translate(291.215 128.799)"/><path class="r" d="M897.168,484.035a11.718,11.718,0,0,0,7.513,5.242L904,491.757c-1.178,4.258-2.5,8.762-5.79,11.714a5.445,5.445,0,0,0-.917-4.235,15.965,15.965,0,0,0-3.072-3.21l-5.208-4.511a1.571,1.571,0,0,1-.373-.44,1.324,1.324,0,0,1,0-.992c.664-2.066,2.558-3.355,4.1-4.75a14.205,14.205,0,0,0,2.062-2.4C895.841,481.448,896.486,482.939,897.168,484.035Z" transform="translate(-588.754 -346.568)"/><path class="u" d="M854.056,451.346l-.205-1.7c1.428.373,2.785-.843,3.7-2.1s1.76-2.737,3.15-3.262c1.689-.634,3.479.373,5.093,1.223a16.1,16.1,0,0,0,5.842,1.9,3.845,3.845,0,0,1,.966.157c1.051.373,1.551,1.693,1.7,2.889a11.3,11.3,0,0,0,.63,3.534c.373.809,1.066,1.409,1.491,2.207,1.119,2.14.037,5.067,1.2,7.166l-2.9-2.658c-.265-.242-.638-.5-.932-.291-.231.164-.25.518-.343.8a1.523,1.523,0,0,1-2.065.746,5.919,5.919,0,0,1-1.864-1.689,11.316,11.316,0,0,0-4.6-3.49,5.906,5.906,0,0,0-4.847.321c-1.353.764-2.345,2.546-4,2.61-2.274.086-3.221-4.15-4.273-5.824a2.051,2.051,0,0,0,.6-2.565C852.549,451.26,854.022,451.085,854.056,451.346Z" transform="translate(-565.711 -322.596)"/><path class="g" d="M552.723,318.063a17.6,17.6,0,0,0-2.01,2.11,4.224,4.224,0,0,0-.925,2.711,1.387,1.387,0,0,0,.261.794.671.671,0,0,0,.746.227,1,1,0,0,0,.373-.328,17.982,17.982,0,0,1,1.253-1.357c.16-.16.373-.328.589-.268a.629.629,0,0,1,.254.168,1.715,1.715,0,0,1,.526.82,1.932,1.932,0,0,1-.578,1.588,4.07,4.07,0,0,0-.973,1.439.638.638,0,0,0,0,.462.694.694,0,0,0,.291.246,4.161,4.161,0,0,0,3.52.231c.746-.3,1.409-.82,2.177-1.089a5.034,5.034,0,0,0,.962-.373,2,2,0,0,0,.854-1.279,5.272,5.272,0,0,0,.056-1.57,18.051,18.051,0,0,0-1.283-5.9.748.748,0,0,0-.216-.313.69.69,0,0,0-.373-.1c-.954-.1-2.52-.589-3.441-.235a2.43,2.43,0,0,0-.813.723C553.8,316.96,552.723,317.814,552.723,318.063Z" transform="translate(-376.299 -242.214)"/><path class="f" d="M534.332,260.8c0-.91-1.118-3.106.66-3.251,0-.973-1.376-1.577-1.118-2.61.082-.343.373-.623.406-.973.112-1-1.685-1.536-1.387-2.491.112-.373.507-.589.593-.958.2-.861-1.339-1.245-1.368-2.129,0-.3.168-.578.153-.876,0-.373-.324-.656-.5-.981-.466-.831-.239-2.118-1.089-2.546.563.048.746-.787.515-1.3s-.7-.954-.708-1.521a2.294,2.294,0,0,0,0-.619c-.157-.544-1.048-.589-1.2-1.118a4.767,4.767,0,0,1-.019-.611c-.06-.421-.492-.69-.9-.809a3.664,3.664,0,0,1-1.2-.429c-.261-.2-.563-.526-.843-.373-.1.063-.157.183-.235.272-.336.391-.977.22-1.4-.067a5.743,5.743,0,0,1-2.129-3.844c-.265-1.48-.257-3.009-.589-4.474a9.55,9.55,0,0,0-.4-1.342,7.065,7.065,0,0,1-.626-1.335c-.067-.857,1.708-.272,2.382-.186a10.612,10.612,0,0,1,1.935.373,20.7,20.7,0,0,1,1.98.869c2.692,1.189,5.943,1.335,8.105,3.333a6.8,6.8,0,0,0,2.237,1.816,10.117,10.117,0,0,1,1.253.324c1.025.481,1.186,1.842,1.745,2.826a5.534,5.534,0,0,1,.459.82,3.16,3.16,0,0,1,.149,1.044l.078,2.584a95.265,95.265,0,0,1-.209,12.971,10.635,10.635,0,0,0,.049,4.247c.112.373.268.723.373,1.1a6.7,6.7,0,0,1,.142,1.342l.06,1.674a.522.522,0,0,1-.082.373.537.537,0,0,1-.451.108c-2.33-.209-4.687-1.521-6.886-.727" transform="translate(-358.21 -185.791)"/><ellipse class="b" cx="27.575" cy="3.986" rx="27.575" ry="3.986" transform="translate(254.887 195.662)"/><path class="v" d="M761.43,354.169c-.485-2.077-.787-3.9-.787-3.9a8.037,8.037,0,0,0-.9-3.956v-.567h0v-4.176a14.234,14.234,0,0,1,1.055-2.189c.746-1.312,0-6.122,0-6.122s-2.785-6.782-2.11-11.084-5.719-19.1-5.719-19.1a18.86,18.86,0,0,1,.6-4.228,3.226,3.226,0,0,0,.082-.887v-.075c-.1-2.837-2.341-8.154-2.341-8.154l.3-10.134a29.793,29.793,0,0,0-.9-14c-.817-2.8-1.339-5.041-1.67-6.771-.037-.194-.075-.373-.1-.563,4.806-.746,8.478-1.342,8.478-1.342s-2.789-11.666-4.672-13.709-3.389-8.46-3.389-8.46-.98-8.236.6-10.644,1.808-6.562,1.808-6.562,3.613-2.61,4.068-3.792a19.346,19.346,0,0,0,1.2-5.175c0-1.383-.451-2.61-.3-3.355s-1.055-3.5-.451-4.813a3.532,3.532,0,0,0,.239-1.264.166.166,0,0,0,0-.037h0a17.722,17.722,0,0,0-.317-3.423,9.712,9.712,0,0,0-3.579-1.913l-.078-.313-.205-.82a3.969,3.969,0,0,0-.354-.209v-.3l-.034-1.186.567-2.662c1.118-4.631-5.067-5.32-5.067-5.32a3.262,3.262,0,0,0-1.752-1.536c-1.242-.436-.205,6.964.373,7.457a29.17,29.17,0,0,1,2.438,3.818h0l.1.186a2.6,2.6,0,0,0-.283.3l.235,1.607.037.246a6.669,6.669,0,0,0-.988,1.681,3.627,3.627,0,0,1,.906,2.61,8.358,8.358,0,0,0,.373,3.206c-.067-.078-.861-.936-1.655-.727s-3.012.876-3.012.876-1.655.291-1.491.656-1.118,1.969-1.118,1.969l-4.452-4.22c-.045-.127-.093-.254-.13-.373a10.263,10.263,0,0,1-.373-1.864,10.181,10.181,0,0,0,1.424-.451,3.072,3.072,0,0,0,1.23-.79,4.77,4.77,0,0,0,.72-1.92,28.246,28.246,0,0,1,1.652-3.684,11.975,11.975,0,0,0,.839-6.629,4.326,4.326,0,0,0-.682-1.939c-.727-1-2.047-1.406-3.005-2.2s-1.577-2.017-2.7-2.61a5.346,5.346,0,0,0-3.378-.291,18.2,18.2,0,0,0-6.312,2.3,3.285,3.285,0,0,1-2.11.693,2.755,2.755,0,0,1-1.521-1.118.074.074,0,0,0-.03-.119,7.865,7.865,0,0,0-.693,3.333,4.111,4.111,0,0,0,.022.533v.339h0a.847.847,0,0,1-.034.235,1.7,1.7,0,0,1-.418.6,4.026,4.026,0,0,0-.373.5.614.614,0,0,1,.06-.183,2.651,2.651,0,0,0-.462,1.406,1.436,1.436,0,0,0,.336,1.007,4.848,4.848,0,0,0,.727.582,8.485,8.485,0,0,0-.134,1.491,8.616,8.616,0,0,0,4.2,7.348c.052.123.1.25.149.373a10.616,10.616,0,0,1,.809,4.847,2.277,2.277,0,0,1-.052.35c-.019.116-.112.123-.16.186h0s-7.356.075-9.086-1.491-4.37,3.829-4.37,3.829-2.636.511-3.165,0-3.613-.071-3.613-.071a6.647,6.647,0,0,0-4.6-1.678,13.492,13.492,0,0,0-3.355-1.864h0l-.082-.03h0a3.758,3.758,0,0,0-1.659-.209,33.462,33.462,0,0,1-4.672-4.593c-1.055-1.611-6.077-7.557-6.1-7.583v-.287l-.056-.865a3.1,3.1,0,0,1-.451.037c-.026-.086-.063-.186-.1-.3a16.68,16.68,0,0,0-1.066-2.45s0-1.092.317-1.368-.13-4.284-.13-4.284-3.259-7.617-6.178-1.931c0,0-5.518,3.68-.887,7.967,0,0,1.864.895,2.11,1.6.172.459.8,1.745,1.219,2.61l.19.373-.052.045.067.716.03.276c-.872.5-1.465.988-1.32,1.357a8.154,8.154,0,0,1,.526,1.969s6.405,8.023,7.233,11.45c0,0,17.176,10.208,22.825,10.935l-1,5.089a40.625,40.625,0,0,0-.224,4.157c.075,1.092-.679,6.051-.679,6.051s-.981,7.293-1.808,8.314-.679,5.395-.679,5.395a36.857,36.857,0,0,1-1.118,6.2,15.831,15.831,0,0,0-.227,6.2s-2.86,6.562,3.993,2.114c0,0,3.356-.209,7.24-.343v.373c0,.5,0,1.04-.026,1.607-.052,3.758-.075,8.948.1,12.855.3,6.927,2.412,20.636,2.412,20.636v6.9a9.39,9.39,0,0,0-.2,1.969,12.811,12.811,0,0,0,1.864,6.894l.529,4.593a17.92,17.92,0,0,1,1.26,4.847,2.54,2.54,0,0,1-.052.436,2.931,2.931,0,0,0-.06.7,39.671,39.671,0,0,0,1.186,7.084s.075,5.03.828,5.324c.645.25-.861,2.9-1.309,3.658a1.035,1.035,0,0,1-.026-.142l-.093.149a3.57,3.57,0,0,0-.235,1.275,1.827,1.827,0,0,0,.835,1.767c1.432.876,2.2,1.6.984,1.894a12.648,12.648,0,0,0-1.327.28.575.575,0,0,0-.063-.168.8.8,0,0,0-.5.88,3.728,3.728,0,0,0,.444,1.693,18.467,18.467,0,0,0,2.039,3.728l.578-.063a2.821,2.821,0,0,1-.336.623,2.4,2.4,0,0,1-.85.746,2.632,2.632,0,0,1-1.033.354,2.908,2.908,0,0,0-2.133,1.036c-.746.973-1.223,2.3.261,3.46l5.387,1.864s9.269,1.2,8.776-.876-.79-3.9-.79-3.9a8.221,8.221,0,0,0-.746-3.687,4.807,4.807,0,0,0-.328-.544l.328-.034s.679-4.6,1.581-5.469c.209-.2.257-.373.209-.477.093-.25-.145-.4-.447-.481l-.067.183a4.393,4.393,0,0,0-.9-.1s-.3-2.4.679-3.281a.928.928,0,0,0,.19-.716,3.845,3.845,0,0,0-.1-.981.485.485,0,0,1-.034.06,35.323,35.323,0,0,0-2.162-5.656,6.916,6.916,0,0,1,.529-3.061c.6-.876-.078-11.886-.078-11.886s.227-5.32-.451-7.8.828-5.4.828-5.4v-.194l-.086-.839a.213.213,0,0,0,0,.052c-.153-1.409-.44-3.963-.652-5.141-.3-1.678.078-9.694.078-9.694l1.353-3.43,2.412,5.909,2.561,7.874a6.728,6.728,0,0,1,1.3,3.355v.246a4.31,4.31,0,0,0-.03.526,4.683,4.683,0,0,0,.779,2.807s.679,3.728,1.734,4.664a4.186,4.186,0,0,1,1.055,2.77s1.279,5.4,1.864,6.338c.507.8.533,2.983.529,3.665h0v.194s.179,1.931.172,3.549v.578a.162.162,0,0,0,0-.041,5.615,5.615,0,0,1-.157,1.312l-.022.075a.95.95,0,0,1,.026-.272,13.7,13.7,0,0,0-.373,3.355c-.034,1.939.261,4.235,1.435,5.592,2.036,2.334,3.314,2.043,3.314,2.043s-.977,2.916-2.185,3.5a.565.565,0,0,0-.127.082,1.269,1.269,0,0,0-.03-.172,1.421,1.421,0,0,0-.373,1.089,7.821,7.821,0,0,0,1.491,4.321,2.435,2.435,0,0,0,1.018.6,1.622,1.622,0,0,1-.19.116,4.035,4.035,0,0,1-.414.2,2.173,2.173,0,0,1-.615.16,2.871,2.871,0,0,0-2.133,1.036c-.746.969-1.223,2.293.261,3.456l5.387,1.864S761.915,356.246,761.43,354.169Z" transform="translate(-455.245 -154.327)"/><path class="w" d="M800.427,646.283l-5.22-1.864c-1.439-1.163-.981-2.487-.253-3.46a2.789,2.789,0,0,1,2.065-1.036,2.476,2.476,0,0,0,1-.354,2.385,2.385,0,0,0,.828-.746,3.851,3.851,0,0,0,.593-2.017s5.727-1.678,7.293,0a4.239,4.239,0,0,1,.693,1.018,8.519,8.519,0,0,1,.746,3.687s.291,1.819.764,3.9S800.427,646.283,800.427,646.283Z" transform="translate(-529.628 -442.996)"/><path class="w" d="M868.867,639.371l-5.22-1.864c-1.439-1.163-.981-2.487-.254-3.456a2.755,2.755,0,0,1,2.062-1.036,1.934,1.934,0,0,0,.6-.16,3.953,3.953,0,0,0,.4-.2,3.3,3.3,0,0,0,1.42-2.77s5.723-1.678,7.293,0a4.126,4.126,0,0,1,.548.746,8.285,8.285,0,0,1,.872,3.959s.291,1.823.746,3.9S868.867,639.371,868.867,639.371Z" transform="translate(-572.551 -438.657)"/><path class="j" d="M814.442,636.794a4.242,4.242,0,0,1,.693,1.018h0l-8.575,1a3.853,3.853,0,0,0,.593-2.017S812.876,635.116,814.442,636.794Z" transform="translate(-537.338 -442.989)"/><path class="j" d="M881.364,630.651v1.607c-1.335,2.2-7.788,1.715-9.664.615a3.961,3.961,0,0,0,.4-.2,3.3,3.3,0,0,0,1.42-2.77s5.723-1.678,7.293,0A4.13,4.13,0,0,1,881.364,630.651Z" transform="translate(-578.192 -438.669)"/><path class="f" d="M827.035,471.191a14.6,14.6,0,0,0-1.018,2.189v5.76c-1.461,2.4-9.041,1.6-10.067.291s-2.1-4.727-.943-5.32,2.114-3.5,2.114-3.5-1.242.291-3.21-2.043-1.383-7.509-1.018-8.747,0-5.395,0-5.395.074-2.919-.507-3.866-1.823-6.338-1.823-6.338a4.292,4.292,0,0,0-1.022-2.77c-1.022-.947-1.678-4.668-1.678-4.668a4.784,4.784,0,0,1-.727-3.135,6.369,6.369,0,0,0-1.242-3.792l-2.479-7.878-2.334-5.906L799.77,419.5s-.373,8.02-.071,9.694.746,6.126.746,6.126-1.458,2.916-.8,5.395.418,7.807.418,7.807.656,11.006.071,11.882a7.116,7.116,0,0,0-.511,3.065s2.983,6.413,2.043,7.289-.656,3.281-.656,3.281,2.039,0,1.167.876-1.532,5.469-1.532,5.469l-8.818,1.033a18.338,18.338,0,0,1-1.972-3.728c-1.167-2.711.216-2.4,1.391-2.7s.432-1.018-.954-1.894-.582-2.845-.582-2.845,2.114-3.572,1.383-3.863-.8-5.324-.8-5.324-1.458-5.965-1.092-7.583-1.167-5.466-1.167-5.466l-.511-4.593a12.639,12.639,0,0,1-1.6-8.68v-7.084s-2.043-13.705-2.334-20.633c-.186-4.437-.134-10.492-.075-14.268.037-2.118.075-3.523.075-3.523l31.5-3.281a26.322,26.322,0,0,0,.57,4.679c.324,1.73.828,3.971,1.618,6.771a30.764,30.764,0,0,1,.876,14l-.295,10.137s2.77,6.778,2.189,9.112a19.431,19.431,0,0,0-.589,4.235s6.2,14.8,5.54,19.1,2.039,11.084,2.039,11.084S827.766,469.878,827.035,471.191Z" transform="translate(-522.845 -286.135)"/><path class="s" d="M852.05,510.549l9.589-1.279S856.207,514.814,852.05,510.549Z" transform="translate(-565.868 -363.478)"/><path class="j" d="M871.109,484.14s.328,3.393-1.749,4.668C869.36,488.808,873.077,488.226,871.109,484.14Z" transform="translate(-576.724 -347.717)"/><path class="j" d="M853.4,455.2s-8.016,6.6-10.932,6.051S853.4,455.2,853.4,455.2Z" transform="translate(-559.608 -329.567)"/><path class="j" d="M809.615,521s-6.088,1.383-6.271,3.829S809.615,521,809.615,521Z" transform="translate(-535.319 -370.835)"/><path class="s" d="M812.665,602.56s-8.6,1.6-6.159,2.7a41.752,41.752,0,0,0,6.454,1.969S815.737,607.37,812.665,602.56Z" transform="translate(-537.03 -421.986)"/><g class="x" transform="translate(260.605 102.868)"><path d="M800.719,612.355a1.7,1.7,0,0,1-.787-1.245l-.089.153s-.8,1.969.585,2.841c.157.1.309.2.447.3.257-.048.533-.086.8-.153C802.847,613.958,802.106,613.231,800.719,612.355Z" transform="translate(-793.586 -530.217)"/><path d="M831.623,610.371c.239-.216.231-.776.086-1.491a4.191,4.191,0,0,0-.488,2.11A1.82,1.82,0,0,1,831.623,610.371Z" transform="translate(-813.409 -528.818)"/><path d="M827.772,515.59a9.942,9.942,0,0,0-.582,2.681,10.8,10.8,0,0,1,.667-1.842Z" transform="translate(-810.882 -470.31)"/><path d="M881.32,503.988a3.423,3.423,0,0,0,.078-.8c-.108.544-.183,1.048-.239,1.491C881.208,504.454,881.261,504.238,881.32,503.988Z" transform="translate(-844.73 -462.533)"/><path d="M827.855,582.392a4.673,4.673,0,0,0,.216-1.622,5.505,5.505,0,0,0-.421,2.047A1.955,1.955,0,0,1,827.855,582.392Z" transform="translate(-811.17 -511.188)"/><path d="M811.92,622a28.935,28.935,0,0,0-1,4.474l-8.817,1.018a18.331,18.331,0,0,1-1.972-3.728,6.715,6.715,0,0,1-.25-.641c-.529.242-.746.79-.045,2.39a18.641,18.641,0,0,0,1.976,3.728l8.818-1.022s.656-4.593,1.529-5.469C812.6,622.328,812.327,622.108,811.92,622Z" transform="translate(-793.446 -537.047)"/><path d="M790.291,466s.071,5.029.8,5.32h0c.373-.831.615-1.622.287-1.752-.746-.291-.8-5.324-.8-5.324s-1.458-5.965-1.092-7.583-1.167-5.466-1.167-5.466l-.511-4.593a12.639,12.639,0,0,1-1.6-8.68v-7.084s-2.043-13.705-2.334-20.633c-.186-4.437-.134-10.492-.075-14.268,0-.682.022-1.286.034-1.8l-.25.026s-.041,1.4-.075,3.523c-.06,3.777-.116,9.832.075,14.265.291,6.927,2.33,20.636,2.33,20.636v7.084a12.647,12.647,0,0,0,1.607,8.676l.507,4.593s1.532,3.863,1.167,5.469S790.291,466,790.291,466Z" transform="translate(-783.448 -394.14)"/><path d="M868.489,625.634a8.527,8.527,0,0,1-1.4-3.464c-.9.813.134,3.967,1.119,5.22,1.018,1.312,8.6,2.114,10.066-.295v-1.387C876.288,627.658,869.451,626.875,868.489,625.634Z" transform="translate(-835.69 -537.153)"/><path d="M899.422,609.279a14.728,14.728,0,0,0-1.022,2.188V612.5a15.3,15.3,0,0,1,.746-1.461,4.474,4.474,0,0,0,.321-1.808S899.433,609.264,899.422,609.279Z" transform="translate(-855.542 -529.038)"/><path d="M865.595,594.325a14.408,14.408,0,0,0,.72-1.734s-1.242.291-3.21-2.043c-1.432-1.7-1.514-4.9-1.309-7-.373,1.242-.951,6.416,1.018,8.75A5.193,5.193,0,0,0,865.595,594.325Z" transform="translate(-832.349 -512.932)"/><path d="M840.758,501.616a38.839,38.839,0,0,1,.145,4.321,5.9,5.9,0,0,1,.149-.675c.373-1.242,0-5.395,0-5.395s.075-2.919-.511-3.866-1.8-6.346-1.8-6.346a4.292,4.292,0,0,0-1.022-2.77c-1.021-.947-1.678-4.668-1.678-4.668a4.8,4.8,0,0,1-.746-3.135,6.349,6.349,0,0,0-1.238-3.792l-2.479-7.874-2.334-5.906-1.316,3.43s0,.432-.045,1.118l1.066-2.785,2.334,5.894,2.479,7.874A6.349,6.349,0,0,1,835,480.834a4.8,4.8,0,0,0,.746,3.136s.656,3.728,1.678,4.668a4.267,4.267,0,0,1,1.018,2.77s1.242,5.395,1.823,6.338S840.758,501.616,840.758,501.616Z" transform="translate(-811.315 -436.392)"/></g><path class="y" d="M866.786,197.727l-.548,2.662.034,1.186.022.872-3.042.313-.339-.63h0a28.244,28.244,0,0,0-2.36-3.818c-.563-.47-1.566-7.874-.373-7.434a3.18,3.18,0,0,1,1.693,1.532S867.864,193.1,866.786,197.727Z" transform="translate(-570.616 -163.781)"/><path class="j" d="M871.832,219.873l-3.042.313-.339-.63h0a2.681,2.681,0,0,1,3.355-.552Z" transform="translate(-576.154 -181.207)"/><path class="z" d="M872.3,221.781l-4.012.928-.086-.6-.227-1.607a2.761,2.761,0,0,1,3.885-.529l.2.816Z" transform="translate(-575.859 -181.672)"/><path class="y" d="M689.02,188.533l-4.284,2.3-.373-.805c-.406-.854-1.014-2.14-1.182-2.61-.253-.708-2.039-1.6-2.039-1.6-4.474-4.284.858-7.967.858-7.967,2.826-5.686,5.965,1.931,5.965,1.931s.44,4.015.131,4.284-.31,1.368-.31,1.368a16.826,16.826,0,0,1,1.033,2.449C688.949,188.283,689.02,188.533,689.02,188.533Z" transform="translate(-457.559 -154.296)"/><path class="j" d="M697.447,208.921l-4.284,2.3-.373-.805c.6-.507,2.748-2.237,3.452-2.166a5.16,5.16,0,0,0,1.014.026C697.376,208.671,697.447,208.921,697.447,208.921Z" transform="translate(-465.985 -174.684)"/><path class="z" d="M698.077,210.71l-4.813,2.371-.1-1.033-.067-.716s2.789-2.39,3.613-2.3a4.38,4.38,0,0,0,1.256,0l.056.865Z" transform="translate(-466.18 -175.179)"/><path class="y" d="M818.029,229.351s-20.983,2.367-17.061,1.092c2.729-.891,3.814-2.61,4.042-4.549a10.925,10.925,0,0,0-.779-4.847,21.128,21.128,0,0,0-1.864-3.792s16.032-8.821,12.829-.8a12.932,12.932,0,0,0-.91,3.8,10.732,10.732,0,0,0,.414,3.848A11.457,11.457,0,0,0,818.029,229.351Z" transform="translate(-533.525 -177.721)"/><path class="j" d="M818.358,216.425a12.932,12.932,0,0,0-.91,3.8c-1.51,1.271-3.165,1.186-5.294,1.186-1.633,0-3.445.4-4.75-.391a21.135,21.135,0,0,0-1.864-3.792S821.568,208.405,818.358,216.425Z" transform="translate(-536.698 -177.703)"/><circle class="y" cx="8.676" cy="8.676" r="8.676" transform="translate(266.497 26.915)"/><path class="j" d="M818.029,246.338s-20.983,2.367-17.061,1.092c2.729-.891,3.814-2.61,4.042-4.549a11.7,11.7,0,0,1,4.474-2.382,6.279,6.279,0,0,1,3.8-.063,5.407,5.407,0,0,1,1.383.641A11.457,11.457,0,0,0,818.029,246.338Z" transform="translate(-533.525 -194.708)"/><path class="j" d="M872.687,223.911l-4.012.928-.086-.6a3.549,3.549,0,0,1,3.859-1.32Z" transform="translate(-576.241 -183.802)"/><path class="j" d="M698.19,212.163l-4.813,2.371-.1-1.033a35.106,35.106,0,0,1,4.847-2.151Z" transform="translate(-466.293 -176.632)"/><path class="j" d="M815.742,390.649c-8.131,1.3-19.689,2.953-21.524,2.394-1.525-.462-6.387-.414-10.618-.268.037-2.118.075-3.523.075-3.523l31.5-3.281A26.323,26.323,0,0,0,815.742,390.649Z" transform="translate(-522.938 -286.148)"/><path class="aa" d="M765.078,279.707s-26.758,4.593-29.629,3.728-17.616.071-17.616.071c-6.636,4.448-3.866-2.114-3.866-2.114a16.313,16.313,0,0,1,.22-6.2,37.863,37.863,0,0,0,1.1-6.2s-.145-4.377.656-5.4,1.752-8.31,1.752-8.31.727-4.959.656-6.051.216-4.157.216-4.157l.951-5.1c-5.469-.727-22.094-10.935-22.094-10.935-.8-3.426-7-11.446-7-11.446a8.434,8.434,0,0,0-.511-1.969c-.436-1.167,6.126-3.5,6.126-3.5s4.884,5.965,5.906,7.583a32.516,32.516,0,0,0,4.519,4.593,3.516,3.516,0,0,1,1.6.209l.086.026h0a13,13,0,0,1,3.262,1.864,6.338,6.338,0,0,1,4.448,1.678s2.983-.44,3.5.071,3.061,0,3.061,0,2.55-5.395,4.228-3.829,8.8,1.491,8.8,1.491c.947-1.26,3.255-2.162,4.7-2.61a6.3,6.3,0,0,1,3.8-.063,4.825,4.825,0,0,1,1.491.746l4.329,4.228s1.238-1.607,1.092-1.969,1.458-.656,1.458-.656,2.114-.656,2.916-.876,1.536.649,1.6.727a8.716,8.716,0,0,1-.373-3.206,3.788,3.788,0,0,0-.876-2.61c2.55-6.271,8.31-1.022,8.31-1.022s.656,3.426.075,4.739.582,4.083.436,4.813.295,1.969.295,3.355a20.5,20.5,0,0,1-1.167,5.175c-.421,1.167-3.937,3.792-3.937,3.792s-.22,4.157-1.752,6.562-.57,10.629-.57,10.629,1.458,6.416,3.281,8.46S765.078,279.707,765.078,279.707Z" transform="translate(-464.169 -177.115)"/><path class="j" d="M780.8,257.225s-.8-2.4-1.532-2.61a16.866,16.866,0,0,1-2.114-.947l.47-.9s2.737.746,3.177,1.555S780.8,257.225,780.8,257.225Z" transform="translate(-518.893 -202.609)"/><path class="j" d="M736.456,247.245c-.145.746-6.636,1.383-6.636,1.383l3.281-3.288h0l.082.03h0a13,13,0,0,1,3.273,1.875Z" transform="translate(-489.209 -197.949)"/><circle class="ab" cx="0.582" cy="0.582" r="0.582" transform="translate(227.89 38.707)"/><circle class="ab" cx="0.582" cy="0.582" r="0.582" transform="translate(228.635 39.874)"/><circle class="ab" cx="0.582" cy="0.582" r="0.582" transform="translate(229.366 40.952)"/><circle class="ab" cx="0.582" cy="0.582" r="0.582" transform="translate(230.131 42.115)"/><circle class="ab" cx="0.473" cy="0.473" r="0.473" transform="translate(298.966 42.16)"/><circle class="ab" cx="0.473" cy="0.473" r="0.473" transform="translate(299.041 43.237)"/><circle class="ab" cx="0.473" cy="0.473" r="0.473" transform="translate(299.104 44.311)"/><path class="j" d="M787,317.72c-.071-.086,16.367,20.67,29.126,8.676C816.136,326.4,795.977,329.132,787,317.72Z" transform="translate(-525.07 -243.343)"/><path class="j" d="M761.7,346.66s9.835.268,10.864,3.1V352.7a1.887,1.887,0,0,1-1.831,0c-.992-.537-6.938-3.557-9.034-2.1Z" transform="translate(-509.203 -261.494)"/><path class="h" d="M762.19,346.66s9.406.257,10.391,2.957v2.8a1.8,1.8,0,0,1-1.752,0c-.947-.507-6.633-3.389-8.639-2Z" transform="translate(-509.511 -261.494)"/><path class="j" d="M776.1,289.38a31.644,31.644,0,0,0,3.814,6.543,25.673,25.673,0,0,0,5.965,5.768S776.264,290.73,776.1,289.38Z" transform="translate(-518.234 -225.57)"/><path class="j" d="M767.47,258.73s1.641,7.084,5.868,9.489Z" transform="translate(-512.822 -206.347)"/><path class="j" d="M760.474,260.646c-.041-.13-1.458,5.592,5.451,8.773C765.924,269.419,762.99,268.424,760.474,260.646Z" transform="translate(-508.342 -207.548)"/><path class="j" d="M875.906,247.9a49.2,49.2,0,0,1,4.366,3.281S877.983,247.753,875.906,247.9Z" transform="translate(-580.828 -199.553)"/><path d="M804.092,201.839a1.368,1.368,0,0,0,1.491,1.353c2.643.164,5.4.28,7.829-.746a2.982,2.982,0,0,0,1.193-.79,4.9,4.9,0,0,0,.694-1.92,27.925,27.925,0,0,1,1.6-3.684,12.341,12.341,0,0,0,.861-6.618,4.474,4.474,0,0,0-.664-1.935c-.7-1-1.98-1.409-2.908-2.207s-1.525-2.017-2.61-2.61a5.011,5.011,0,0,0-3.273-.291,17.183,17.183,0,0,0-6.107,2.293,3.115,3.115,0,0,1-2.043.693,2.732,2.732,0,0,1-1.491-1.152,8.074,8.074,0,0,0-.623,3.784,1.626,1.626,0,0,1-.019.57,1.715,1.715,0,0,1-.406.6c-.652.746-1.059,1.957-.414,2.725.28.332.712.515.984.854.488.608.324,1.491.313,2.267a1.166,1.166,0,0,0,.194.768,1.119,1.119,0,0,0,1.07.257,2.912,2.912,0,0,1,1.141-.108,1.913,1.913,0,0,1,.992.746A14.013,14.013,0,0,1,804.092,201.839Z" transform="translate(-531.265 -158.386)"/><g class="ac" transform="translate(265.612 25.763)"><path d="M814.916,213.191a2.982,2.982,0,0,1-1.193.79c-2.446,1.018-5.2.9-7.829.746a1.372,1.372,0,0,1-1.495-1.357,13.6,13.6,0,0,0-2.211-5.13,1.916,1.916,0,0,0-.992-.764,3.058,3.058,0,0,0-1.141.108,1.118,1.118,0,0,1-1.07-.254,1.166,1.166,0,0,1-.194-.768c0-.783.175-1.659-.313-2.267-.272-.339-.7-.522-.984-.858a1.7,1.7,0,0,1-.168-1.737,1.988,1.988,0,0,0-.123,2.323c.28.332.712.514.984.854.488.611.324,1.491.313,2.267a1.16,1.16,0,0,0,.19.768,1.119,1.119,0,0,0,1.074.257,2.912,2.912,0,0,1,1.141-.108,1.913,1.913,0,0,1,.992.746,13.625,13.625,0,0,1,2.211,5.134,1.864,1.864,0,0,0,.645,1.182,1.808,1.808,0,0,0,.82.179c2.643.164,5.4.283,7.829-.746a2.954,2.954,0,0,0,1.193-.79,2.281,2.281,0,0,0,.373-.7A.184.184,0,0,1,814.916,213.191Z" transform="translate(-796.877 -196.342)"/><path d="M799.959,191.536a1.277,1.277,0,0,0,.265-.44,1.628,1.628,0,0,0,0-.57,8.086,8.086,0,0,1,.406-3.139l-.048-.056a8.016,8.016,0,0,0-.623,3.781A2.7,2.7,0,0,1,799.959,191.536Z" transform="translate(-798.795 -187.33)"/></g><path class="j" d="M812.08,248.56s10.838,1.439,11.811-.19" transform="translate(-540.8 -199.85)"/><path class="j" d="M868.59,236.85s6.025,0,7.349,2.267" transform="translate(-576.241 -192.625)"/><path class="t" d="M945.6,768.225a9.556,9.556,0,0,1-6.506,2.431c-.611,0-1.458.116-1.461.727a1.025,1.025,0,0,0,.179.5,5.984,5.984,0,0,0,3.355,2.636,11.861,11.861,0,0,0,4.06.257l3.971-.205c.746-.041,1.491-.078,2.237-.171s1.558-.246,2.338-.373a30.579,30.579,0,0,1,5.783-.268,1.75,1.75,0,0,0,1.424-.373c.306-.373.149-1.085.034-1.644-.239-1.152,0-2.36-.22-3.516a6.173,6.173,0,0,0-4.053-4.317c-1.789-.679-4.959-1.458-6.651-.324C948.3,764.773,947.208,766.76,945.6,768.225Z" transform="translate(-619.541 -522.615)"/><path class="f" d="M956.168,580.815c.35,1.667,1.965,2.942,2.01,4.642.041,1.365-.932,2.509-1.633,3.676a24.531,24.531,0,0,0-1.667,3.773,57.629,57.629,0,0,1-4.892,9.731c-.932,1.491-1.976,3.083-1.763,4.817a7.219,7.219,0,0,0,.846,2.3l2.8,5.555a16.085,16.085,0,0,1,1.428,3.508c.242,1.055.265,2.148.406,3.221.44,3.408,2.039,6.838,1.092,10.141-.082.283-.373.626-.6.429a10.624,10.624,0,0,1,1.6,5.421,7.557,7.557,0,0,0,.026,3.05,3.34,3.34,0,0,1,.436,1.2,7.654,7.654,0,0,1-.16.824,1.817,1.817,0,0,0,1.394,1.693c.749.25,1.566.231,2.323.459,1.454.436,2.494,1.689,3.728,2.558a7.938,7.938,0,0,0,4.3,1.4,1.081,1.081,0,0,0,.634-.127,1.025,1.025,0,0,0,.35-.768,4.265,4.265,0,0,0-1.536-3.706,1.677,1.677,0,0,1-.57-.6,1.439,1.439,0,0,1-.052-.667,50.239,50.239,0,0,0-.164-9.172,13.937,13.937,0,0,1-.145-2.919,11.92,11.92,0,0,0,.235-2.427,12.892,12.892,0,0,0-.746-2.327,16.762,16.762,0,0,1-.373-4.328,37.97,37.97,0,0,0-1.227-7.457,5.638,5.638,0,0,0-1.16-2.692c-.582-.608-1.521-1.189-1.3-2a2.367,2.367,0,0,1,.533-.794,3.188,3.188,0,0,0,.664-2.431,1.092,1.092,0,0,0,1.256-.589,19.658,19.658,0,0,0,9.835-11.185,3.69,3.69,0,0,1,.44-1,4.5,4.5,0,0,1,1.8-1.167c2.036-1.025,3.441-2.945,4.731-4.824a8.528,8.528,0,0,0,2.077-6.021l.116-4.381a2.366,2.366,0,0,0-.082-.858,2.144,2.144,0,0,0-.473-.693,8.422,8.422,0,0,0-4.646-2.505c-1.193-.213-2.412-.172-3.62-.272-2.341-.194-4.653-.921-6.994-.746a11.194,11.194,0,0,0-8.691,6.081C958.114,579.794,957.473,580.793,956.168,580.815Z" transform="translate(-626.167 -403.157)"/><path class="ad" d="M907.94,502.066a4.9,4.9,0,0,1-.268,1.995,1.394,1.394,0,0,1-1.637.839c.19-.429-.313-.917-.783-.865a1.465,1.465,0,0,0-1.033.887,3.3,3.3,0,0,0-.3,2.025,8.21,8.21,0,0,1,.514,2.543c-.1.716-.63,1.428-.35,2.092a3.392,3.392,0,0,0,.675.809,2.282,2.282,0,0,1-.242,3.132l7.054.142a4.981,4.981,0,0,0,.876,3.43,21.625,21.625,0,0,0,16.121,10.525,1.4,1.4,0,0,0-.339,2.144,1.992,1.992,0,0,0,2.267.13,16.139,16.139,0,0,0,1.939-1.454,5.965,5.965,0,0,1,3.986-1.074c.884.086,1.741.373,2.628.418,2.61.138,4.847-1.741,7.36-2.509,1.831-.563,3.907-.563,5.443-1.708a2.169,2.169,0,0,0,1.014-2.1,3.508,3.508,0,0,0-.746-1.234,21.317,21.317,0,0,1-2.039-3.822,22.861,22.861,0,0,0-5.1-6.83,45.6,45.6,0,0,0-5.056-3.833,8.622,8.622,0,0,0-1.365-.824,15.3,15.3,0,0,1-1.864-.746,9.937,9.937,0,0,1-1.942-2.185c-1.4-1.633-3.546-2.382-5.268-3.665-1.156-.861-2.177-1.995-3.557-2.408-.671-.205-1.383-.22-2.054-.421-1.525-.462-2.636-1.816-4.131-2.364a16.579,16.579,0,0,0-3.728-.474,8.727,8.727,0,0,1-3.9-1.484,4.625,4.625,0,0,0-1.242-.723c-1.89-.574-2.043,2.945-2.237,4.165A40.16,40.16,0,0,0,907.94,502.066Z" transform="translate(-598.37 -352.892)"/><path class="r" d="M875.767,540.334c.317,3.437-2.278,6.767-1.521,10.134.16.716.47,1.4.582,2.125.317,1.995-.876,3.885-2.013,5.555l-9.768,14.335a9.014,9.014,0,0,1-1.394,1.722c-1.864,1.659-4.668,1.491-7.121,1.983a12.3,12.3,0,0,0-4.772,2.11.31.31,0,0,0-.06.429,4.1,4.1,0,0,0,3.546,1.667c.257.336,0,.835-.354,1.078-.522.373-1.245.458-1.35,1.35a1.491,1.491,0,0,0,.179.895,2.785,2.785,0,0,0,1.708,1.186c3.382,1.037,7.035-.783,9.567-3.255s4.347-5.592,6.83-8.105c1.376-1.394,2.938-2.584,4.355-3.933a49.821,49.821,0,0,0,7.143-9.242,10.227,10.227,0,0,0,1.547-3.147c.265-1.145.142-2.3.444-3.411a12.535,12.535,0,0,1,2.341-3.825,12.65,12.65,0,0,0,2.662-8.247,7.9,7.9,0,0,0-4.824-6.841,4.336,4.336,0,0,0-2.7-.164,6.4,6.4,0,0,0-2.752,2.192l-1.864,2.14a4.991,4.991,0,0,0-1.048,1.644,1.719,1.719,0,0,0,.373,1.827" transform="translate(-564.355 -379.357)"/><path class="z" d="M922.375,511.97a5.343,5.343,0,0,0-3.6,1.118,5.127,5.127,0,0,0-.91,1.424,14.184,14.184,0,0,0-1.8,5.667,25.939,25.939,0,0,0,.652,4.735c.2,1.312-.309,2.651-.406,3.978a27.6,27.6,0,0,0,5.138-1.976,17.2,17.2,0,0,1,3.009-1.562c1.532-.511,4.1.373,5.559,1.081.078-1.022-.69-2.8-.608-3.829a4.277,4.277,0,0,1,.227-1.268,7.693,7.693,0,0,1,.772-1.227,5.019,5.019,0,0,0-.451-5.88A8.188,8.188,0,0,0,924.705,512a22.707,22.707,0,0,0-3.665-.127" transform="translate(-606.012 -365.093)"/></svg>