<svg xmlns="http://www.w3.org/2000/svg" width="25.156" height="28.897" viewBox="0 0 25.156 28.897"><defs><style>.a{fill:#00d8fe;}.b{fill:#00ef75;}.c{fill:#fec900;}.d{fill:#ee2f4b;}</style></defs><g transform="translate(-232.976 -661.462)"><path class="a" d="M12.387,13.689a3.181,3.181,0,0,0-.128.886V41.711a3.227,3.227,0,0,0,.125.875l15.23-14.429Z" transform="translate(220.735 647.773)"/><path class="b" d="M45.838,10.345,28.056.454a2.6,2.6,0,0,0-2-.39L41.354,14.6Z" transform="translate(206.916 661.492)"/><path class="c" d="M186.647,105.46l-4.312-2.4-4.417,4.183,4.5,4.276,4.2-2.3C188.661,108.05,187.914,106.171,186.647,105.46Z" transform="translate(70.246 568.782)"/><path class="d" d="M25.65,171.773a2.557,2.557,0,0,0,2.022-.372l17.673-9.7-4.524-4.3Z" transform="translate(207.508 518.511)"/></g></svg>