<svg xmlns="http://www.w3.org/2000/svg" width="33.16" height="19.844" viewBox="0 0 33.16 19.844"><defs><style>.a{fill:#fff;fill-rule:evenodd;}</style></defs><g transform="translate(-14134.888 3380.402)"><path class="a" d="M9381.478,9.3c.493-3.432,2.37-3.52,3.159-5.3-10.165,1.35-13.29,15.677-5.37,19.154a7.353,7.353,0,0,0,10.254-5.1C9390.625,12.773,9386.535,9.053,9381.478,9.3Z" transform="translate(4778.346 -3384.395)"/><path class="a" d="M7.23,5.3a5.634,5.634,0,0,1,1.136-2.85,14.333,14.333,0,0,1,1.5-1.57c.487-.6.226-.187.53-.877A12.231,12.231,0,0,0,1.2,7.595c-1.854,4.938.267,10.127,3.978,11.641a7.344,7.344,0,0,0,10.158-5.516c.855-5.17-3.173-8.579-8.107-8.421Z" transform="translate(14134.369 -3380.402)"/></g></svg>