<svg xmlns="http://www.w3.org/2000/svg" width="196.523" height="17.423" viewBox="0 0 196.523 17.423"><defs><style>.a{fill:#26093a;}</style></defs><g transform="translate(-623 -4269)"><path class="a" d="M17.086,8.824a8.262,8.262,0,1,0-9.553,8.162V11.212h-2.1V8.824h2.1V7a2.915,2.915,0,0,1,3.12-3.214,12.714,12.714,0,0,1,1.85.161V5.983H11.461a1.194,1.194,0,0,0-1.346,1.29V8.824h2.291l-.366,2.388H10.115v5.773A8.265,8.265,0,0,0,17.086,8.824Z" transform="translate(802.438 4269.438)"/><path class="a" d="M8.712.563a8.712,8.712,0,1,0,8.712,8.712A8.71,8.71,0,0,0,8.712.563ZM12.99,6.531l-1.43,6.737c-.105.478-.39.594-.787.369L8.6,12.032l-1.05,1.012a.55.55,0,0,1-.439.214l.155-2.217L11.3,7.395c.176-.155-.039-.242-.27-.088l-4.988,3.14-2.15-.671c-.467-.148-.478-.467.1-.692l8.4-3.239c.39-.141.731.095.6.685Z" transform="translate(684 4268.438)"/><path class="a" d="M17.038,7.225c.012.169.012.337.012.506A11,11,0,0,1,5.977,18.8,11,11,0,0,1,0,17.057a8.051,8.051,0,0,0,.94.048,7.8,7.8,0,0,0,4.832-1.663,3.9,3.9,0,0,1-3.639-2.7,4.908,4.908,0,0,0,.735.06,4.116,4.116,0,0,0,1.024-.133A3.893,3.893,0,0,1,.771,8.851V8.8A3.92,3.92,0,0,0,2.53,9.3a3.9,3.9,0,0,1-1.2-5.205A11.063,11.063,0,0,0,9.35,8.164a4.394,4.394,0,0,1-.1-.892A3.9,3.9,0,0,1,15.99,4.61a7.663,7.663,0,0,0,2.47-.94,3.881,3.881,0,0,1-1.711,2.145,7.8,7.8,0,0,0,2.241-.6,8.366,8.366,0,0,1-1.952,2.012Z" transform="translate(623 4266.619)"/><path class="a" d="M11.12,2.25a8.521,8.521,0,0,0-8.553,8.487A8.4,8.4,0,0,0,3.794,15.12L2.25,19.673l4.736-1.5a8.568,8.568,0,0,0,12.688-7.432A8.52,8.52,0,0,0,11.12,2.25Zm4.253,11.711a2.209,2.209,0,0,1-1.513.975c-.4.021-.413.311-2.6-.639a8.924,8.924,0,0,1-3.606-3.41,4.2,4.2,0,0,1-.807-2.273A2.424,2.424,0,0,1,7.68,6.835a.838.838,0,0,1,.592-.249c.172,0,.284-.005.411,0S9,6.559,9.168,7s.562,1.523.612,1.633a.4.4,0,0,1,0,.38,1.485,1.485,0,0,1-.232.353c-.114.122-.24.274-.342.367s-.232.217-.113.438a6.545,6.545,0,0,0,1.158,1.545,5.968,5.968,0,0,0,1.715,1.14c.214.117.342.1.475-.036s.569-.612.723-.823.3-.17.5-.091,1.251.644,1.465.76.358.176.409.268A1.8,1.8,0,0,1,15.373,13.961Z" transform="translate(741.75 4266.75)"/></g></svg>