<svg xmlns="http://www.w3.org/2000/svg" width="161.349" height="48.996" viewBox="0 0 161.349 48.996"><defs><style>.a{fill:#fff;mix-blend-mode:screen;isolation:isolate;}</style></defs><path class="a" d="M5.43,38.359V21.084L.26,21.09V18.406l15.791-.027v2.694l-5.179.006v17.3Zm10.229.028V25.113H21.3q2.615,0,3.975,1.011t1.361,2.948q0,1.335-.607,2.174t-1.821,1.182l3.8,5.993-4.944-.014-2.935-6.269V31.9q1.211-.178,1.774-.8t.562-1.775q0-1.169-.6-1.769t-1.766-.6q-.175,0-.277.007t-.19.022V38.4Zm12.779.035,3.386-10.849q.5-1.622,1.137-2.253t1.725-.631q1.014,0,1.587.556t1.058,2.12l3.517,11.092-4.458-.012-.72-2.437L31.339,36l-.689,2.431Zm3.444-4.271,3.244.006L33.569,28.37Zm19.032-7.19q-2.159.03-3.1,1.152t-.945,3.7q0,2.562.938,3.671t3.112,1.145Zm4.279-10.084V38.5l-5.521-.015q-3.634-.01-5.537-1.664t-1.9-4.8q0-3.342,2.064-5.125t5.952-1.786h.666v-8.22ZM60.285,38.51V11.785l16.5-.052v3.611l-9.124.021v7.788l8.649-.005v3.611H67.664v8.169l9.619.019v3.611Zm19.585.054L84.024,32.6,79.9,25.1h4.77l1.968,3.891L89.1,25.1h2.679l-3.973,5.794L92.083,38.6l-4.77-.013-2.149-4.139-2.552,4.126ZM98.525,26.971v9.77q2.222-.025,3.182-1.144t.961-3.713q0-2.609-.968-3.746T98.525,26.971Zm0,17.36-4.392-.018V25.1H99.2q4.023,0,6.12,1.846t2.1,5.376q0,3.222-1.88,4.783t-5.69,1.549q-.544,0-.816-.01t-.514-.024Zm11.843-5.683V25.094h5.884q2.727,0,4.145,1.033t1.419,3.01q0,1.363-.633,2.22t-1.9,1.207l3.967,6.12-5.155-.014-3.06-6.4v-.245q1.263-.182,1.849-.816t.586-1.813q0-1.194-.624-1.806T115,26.974q-.183,0-.289.008t-.2.023V38.659Zm17.82.049q-1.576,0-2.225-.7t-.65-2.416V28.2q0-1.717.65-2.415t2.225-.7H134.5v2.043h-3.358q-.843,0-1.126.307t-.283,1.212v2.225l4.261,0v2.043l-4.261-.006v2.271q0,.89.276,1.182t1.134.294l3.573.008v2.043Zm9.554.026V36.679l3.629.008q1.262,0,1.763-.342t.5-1.161q0-1.047-2.048-1.666-.616-.186-.969-.294-2.015-.664-2.76-1.5t-.745-2.26q0-2.136,1.406-3.258t4.085-1.123h3.56v2.048H143.08q-.755,0-1.186.269t-.431.746q0,.846,1.786,1.4.4.139.6.2,2.189.71,2.96,1.62t.771,2.558q0,2.249-1.412,3.532t-3.891,1.275Zm12.342.034v-2.05l3.649.008q1.269,0,1.772-.343t.5-1.164q0-1.049-2.059-1.67-.619-.186-.975-.295-2.025-.666-2.775-1.5t-.749-2.266q0-2.142,1.414-3.267t4.107-1.126h3.579v2.054h-3.1q-.759,0-1.192.27t-.433.748q0,.848,1.8,1.405.4.139.6.2,2.2.712,2.976,1.624t.776,2.565q0,2.255-1.419,3.541t-3.912,1.279Z"/></svg>